
<svg width="500" height="300" viewBox="0 0 500 300" fill="none" xmlns="http://www.w3.org/2000/svg">
  <!-- Background elements -->
  <rect x="60" y="40" width="380" height="220" rx="20" fill="#E6F4EA" />
  <circle cx="120" cy="150" r="60" fill="#C6F0D4" />
  <rect x="200" y="80" width="220" height="140" rx="10" fill="#D7EDDF" />
  
  <!-- Mountains in background -->
  <path d="M50 230L150 100L250 230H50Z" fill="#276749" opacity="0.7" />
  <path d="M200 230L300 80L400 230H200Z" fill="#276749" opacity="0.5" />
  <path d="M350 230L420 150L490 230H350Z" fill="#276749" opacity="0.3" />
  
  <!-- Sun -->
  <circle cx="400" cy="80" r="30" fill="#F6AD55" />
  <circle cx="400" cy="80" r="40" stroke="#F6AD55" stroke-width="2" stroke-opacity="0.5" />
  <circle cx="400" cy="80" r="50" stroke="#F6AD55" stroke-width="1" stroke-opacity="0.3" />
  
  <!-- Trees -->
  <path d="M100 200L120 160L140 200H100Z" fill="#2F855A" />
  <rect x="115" y="200" width="10" height="20" fill="#8B5E3C" />
  
  <path d="M160 190L180 150L200 190H160Z" fill="#2F855A" />
  <rect x="175" y="190" width="10" height="20" fill="#8B5E3C" />
  
  <path d="M300 210L315 180L330 210H300Z" fill="#2F855A" />
  <rect x="310" y="210" width="10" height="15" fill="#8B5E3C" />
  
  <path d="M350 200L370 160L390 200H350Z" fill="#2F855A" />
  <rect x="365" y="200" width="10" height="20" fill="#8B5E3C" />
  
  <!-- Map pin elements -->
  <circle cx="250" cy="150" r="80" fill="white" stroke="#E2EEFF" stroke-width="10" />
  <path d="M250 100C228.402 100 211 117.402 211 139C211 172.5 250 200 250 200C250 200 289 172.5 289 139C289 117.402 271.598 100 250 100ZM250 155C241.163 155 234 147.837 234 139C234 130.163 241.163 123 250 123C258.837 123 266 130.163 266 139C266 147.837 258.837 155 250 155Z" fill="#2F855A"/>
  
  <!-- Connection lines -->
  <line x1="155" y1="180" x2="195" y2="160" stroke="#805AD5" stroke-width="3" stroke-linecap="round"/>
  <line x1="305" y1="160" x2="345" y2="180" stroke="#805AD5" stroke-width="3" stroke-linecap="round"/>
  <line x1="250" y1="210" x2="250" y2="240" stroke="#805AD5" stroke-width="3" stroke-linecap="round"/>
  
  <!-- People icons -->
  <circle cx="155" cy="200" r="20" fill="#38A169" />
  <path d="M155 190C151.5 190 148.5 193 148.5 196.5C148.5 200 151.5 203 155 203C158.5 203 161.5 200 161.5 196.5C161.5 193 158.5 190 155 190ZM147 208C147 204.5 151 201.5 155 201.5C159 201.5 163 204.5 163 208V210H147V208Z" fill="white"/>
  
  <circle cx="345" cy="200" r="20" fill="#2F855A" />
  <path d="M345 190C341.5 190 338.5 193 338.5 196.5C338.5 200 341.5 203 345 203C348.5 203 351.5 200 351.5 196.5C351.5 193 348.5 190 345 190ZM337 208C337 204.5 341 201.5 345 201.5C349 201.5 353 204.5 353 208V210H337V208Z" fill="white"/>
  
  <circle cx="250" cy="260" r="20" fill="#805AD5" />
  <path d="M250 250C246.5 250 243.5 253 243.5 256.5C243.5 260 246.5 263 250 263C253.5 263 256.5 260 256.5 256.5C256.5 253 253.5 250 250 250ZM242 268C242 264.5 246 261.5 250 261.5C254 261.5 258 264.5 258 268V270H242V268Z" fill="white"/>
  
  <!-- Outdoor icons -->
  <circle cx="280" cy="130" r="15" fill="#38A169" opacity="0.8" />
  <path d="M275 125L280 120L285 125L290 120L285 135H275L270 120L275 125Z" fill="white" />
  
  <!-- Message bubbles -->
  <rect x="175" y="120" width="60" height="30" rx="15" fill="#2F855A" />
  <rect x="265" y="120" width="60" height="30" rx="15" fill="#38A169" />
  <rect x="205" y="160" width="90" height="30" rx="15" fill="#805AD5" />
  
  <!-- Small leaves floating -->
  <path d="M150 110C150 110 160 100 170 110C170 120 160 130 150 120C150 110 150 110 150 110Z" fill="#48BB78" opacity="0.6" />
  <path d="M350 140C350 140 360 130 370 140C370 150 360 160 350 150C350 140 350 140 350 140Z" fill="#48BB78" opacity="0.6" />
  <path d="M200 90C200 90 210 80 220 90C220 100 210 110 200 100C200 90 200 90 200 90Z" fill="#48BB78" opacity="0.6" />
</svg>
